<?xml version="1.0" standalone="no"?>
<!DOCTYPE svg PUBLIC "-//W3C//DTD SVG 20010904//EN"
 "http://www.w3.org/TR/2001/REC-SVG-20010904/DTD/svg10.dtd">
<svg version="1.0" xmlns="http://www.w3.org/2000/svg"
 width="1280.000000pt" height="1710.000000pt" viewBox="0 0 880.000000 880.000000"
 preserveAspectRatio="xMidYMid meet">
<metadata>
Created by potrace 1.15, written by Peter Selinger 2001-2017
</metadata>
<g transform="translate(0.000000,710.000000) scale(0.100000,-0.100000)"
fill="darkgreen" stroke="none" opacity="0.3">
<path d="M6181 7092 c-56 -39 155 -123 232 -93 39 15 31 31 -34 64 -58 29
-173 46 -198 29z"/>
<path d="M5930 7071 c-42 -29 81 -93 182 -95 96 -2 101 36 10 76 -50 22 -170
34 -192 19z"/>
<path d="M5673 7053 c-68 -27 124 -114 218 -98 51 9 58 23 25 51 -46 41 -191
69 -243 47z"/>
<path d="M5404 7025 c-8 -20 2 -33 44 -54 109 -55 277 -45 212 14 -52 47 -242
77 -256 40z"/>
<path d="M5160 7020 c-33 -8 -33 -37 0 -61 55 -40 212 -61 242 -31 16 16 -3
41 -47 62 -46 22 -156 39 -195 30z"/>
<path d="M4882 6998 c-111 -29 91 -127 213 -104 30 6 36 11 33 29 -7 48 -165
96 -246 75z"/>
<path d="M4569 6964 c-11 -14 -10 -20 14 -40 80 -68 303 -73 260 -6 -31 50
-241 85 -274 46z"/>
<path d="M6392 6958 c-39 -48 197 -127 253 -85 16 12 17 18 7 30 -39 46 -233
87 -260 55z"/>
<path d="M4280 6945 c-20 -25 -3 -46 61 -72 56 -23 180 -32 207 -14 26 16 8
46 -42 70 -66 33 -204 43 -226 16z"/>
<path d="M6141 6942 c-24 -17 -4 -42 53 -68 68 -31 173 -42 201 -21 26 20 11
38 -58 67 -56 25 -173 37 -196 22z"/>
<path d="M3985 6926 c-39 -28 5 -67 107 -92 74 -18 148 -13 169 13 11 13 9 19
-14 39 -55 47 -218 72 -262 40z"/>
<path d="M5880 6920 c-45 -28 64 -89 172 -96 76 -5 105 4 95 29 -20 51 -215
100 -267 67z"/>
<path d="M3690 6912 c-18 -6 -25 -15 -25 -32 0 -18 11 -29 49 -49 42 -22 63
-26 137 -26 95 0 122 11 103 43 -28 47 -190 86 -264 64z"/>
<path d="M5617 6898 c-16 -12 -16 -15 -2 -35 22 -31 116 -63 191 -65 104 -4
114 35 20 78 -67 30 -182 43 -209 22z"/>
<path d="M3390 6893 c-91 -18 -50 -79 74 -109 69 -18 139 -13 171 10 60 44
-133 122 -245 99z"/>
<path d="M5352 6879 c-55 -21 11 -76 119 -99 58 -13 124 -9 141 8 49 49 -173
126 -260 91z"/>
<path d="M3029 6851 l-24 -19 24 -26 c32 -34 107 -56 188 -56 72 0 103 12 103
40 0 63 -230 111 -291 61z"/>
<path d="M5080 6862 c-89 -27 44 -112 176 -112 65 0 84 7 84 31 0 48 -182 104
-260 81z"/>
<path d="M2710 6839 c-55 -22 -43 -60 28 -91 35 -15 70 -21 133 -22 87 -1 119
10 119 40 0 55 -196 106 -280 73z"/>
<path d="M4770 6825 c-11 -13 -9 -20 10 -40 50 -53 228 -81 267 -42 17 18 17
19 -10 42 -56 49 -237 76 -267 40z"/>
<path d="M6623 6830 c-33 -14 -19 -36 42 -65 87 -43 220 -52 220 -15 0 18 -58
57 -104 70 -56 16 -134 21 -158 10z"/>
<path d="M2382 6821 c-94 -24 -58 -85 67 -117 96 -24 201 -3 201 41 0 46 -182
97 -268 76z"/>
<path d="M4488 6809 c-57 -33 33 -96 152 -106 89 -8 122 1 118 30 -8 58 -206
114 -270 76z"/>
<path d="M6373 6810 c-29 -12 -29 -21 0 -48 62 -59 257 -84 257 -33 0 49 -191
109 -257 81z"/>
<path d="M2010 6788 c-69 -25 -40 -81 55 -107 49 -13 165 -14 198 -2 30 12 41
39 25 59 -39 46 -205 76 -278 50z"/>
<path d="M4203 6794 c-28 -7 -47 -30 -39 -49 9 -26 109 -65 178 -71 79 -7 121
7 116 39 -6 46 -172 99 -255 81z"/>
<path d="M6093 6773 c-16 -40 101 -93 208 -93 104 0 95 48 -18 90 -69 26 -181
28 -190 3z"/>
<path d="M1627 6754 c-41 -22 -33 -53 22 -83 54 -29 209 -41 251 -19 55 29 29
79 -53 103 -66 20 -183 19 -220 -1z"/>
<path d="M3866 6757 c-47 -34 26 -89 143 -108 84 -13 141 1 141 36 0 27 -33
50 -105 72 -53 17 -156 17 -179 0z"/>
<path d="M5832 6758 c-7 -9 -10 -23 -6 -31 15 -41 194 -91 251 -71 79 28 -26
101 -159 111 -58 4 -76 2 -86 -9z"/>
<path d="M1281 6737 c-129 -36 -30 -126 139 -127 78 0 115 12 134 43 34 56
-160 116 -273 84z"/>
<path d="M3564 6740 c-106 -33 20 -120 172 -120 46 0 68 5 85 19 l24 19 -24
26 c-43 46 -187 77 -257 56z"/>
<path d="M5574 6740 c-33 -13 -37 -27 -16 -48 71 -71 329 -86 271 -16 -19 23
-78 50 -137 63 -61 13 -89 13 -118 1z"/>
<path d="M893 6711 c-93 -24 -81 -85 23 -117 61 -18 175 -18 220 1 30 12 35
19 32 42 -2 22 -13 33 -50 51 -51 26 -168 38 -225 23z"/>
<path d="M3222 6710 c-89 -38 35 -120 184 -120 46 0 68 5 85 19 31 26 19 48
-44 79 -52 27 -185 39 -225 22z"/>
<path d="M5271 6706 c-21 -25 -6 -45 56 -73 108 -50 254 -41 225 14 -28 52
-248 98 -281 59z"/>
<path d="M4993 6690 c-56 -23 -4 -78 100 -106 89 -23 177 -13 177 20 0 55
-200 117 -277 86z"/>
<path d="M6841 6686 c-9 -11 -8 -18 6 -32 45 -44 198 -87 252 -69 31 10 26 41
-11 63 -75 46 -222 68 -247 38z"/>
<path d="M463 6671 c-104 -49 -6 -121 164 -121 119 0 178 36 136 82 -29 33
-84 50 -173 54 -70 4 -92 1 -127 -15z"/>
<path d="M2870 6672 c-33 -27 -21 -49 44 -81 59 -30 186 -40 226 -19 43 23 33
58 -25 87 -69 36 -208 43 -245 13z"/>
<path d="M6602 6670 c-38 -16 -22 -42 43 -75 52 -26 71 -30 140 -30 73 0 80 2
80 20 0 46 -201 111 -263 85z"/>
<path d="M2540 6658 c-29 -11 -35 -18 -35 -42 0 -26 7 -33 50 -55 42 -22 62
-26 142 -26 80 0 95 3 113 21 l21 20 -21 26 c-38 49 -197 82 -270 56z"/>
<path d="M4688 6659 c-27 -15 -22 -35 15 -62 38 -29 83 -44 152 -52 144 -17
153 68 12 110 -58 17 -154 19 -179 4z"/>
<path d="M66 6650 c-33 -10 -66 -38 -66 -55 0 -45 133 -91 237 -82 139 13 171
77 63 124 -41 18 -193 27 -234 13z"/>
<path d="M4401 6642 c-85 -26 -22 -94 112 -122 130 -27 204 25 115 80 -56 34
-177 57 -227 42z"/>
<path d="M6322 6638 c-35 -35 79 -98 193 -106 57 -3 73 -1 84 12 12 14 11 20
-8 40 -45 48 -236 87 -269 54z"/>
<path d="M2181 6627 c-69 -24 -64 -60 13 -99 76 -39 254 -34 270 7 14 37 -24
67 -111 90 -68 18 -125 18 -172 2z"/>
<path d="M6074 6621 c-35 -15 -37 -29 -9 -55 69 -64 275 -88 275 -32 0 49
-201 114 -266 87z"/>
<path d="M4083 6614 c-66 -15 -44 -71 39 -102 105 -39 217 -36 233 6 9 23 -42
65 -98 82 -46 14 -140 21 -174 14z"/>
<path d="M1798 6594 c-69 -29 -40 -86 57 -113 52 -14 177 -14 209 1 31 14 42
43 24 65 -41 50 -217 79 -290 47z"/>
<path d="M5788 6594 c-23 -7 -23 -36 0 -57 56 -51 211 -83 257 -53 21 14 24
20 14 37 -24 46 -202 93 -271 73z"/>
<path d="M3743 6578 c-83 -40 37 -120 183 -122 75 -1 104 11 104 45 0 57 -211
114 -287 77z"/>
<path d="M1421 6568 c-72 -27 -67 -67 13 -107 38 -19 65 -24 130 -25 118 -1
171 26 145 75 -26 49 -211 85 -288 57z"/>
<path d="M5490 6555 c-19 -23 -4 -45 52 -73 61 -31 157 -48 200 -36 26 8 33
15 33 34 0 39 -95 82 -194 88 -64 4 -79 1 -91 -13z"/>
<path d="M3410 6547 c-17 -8 -25 -21 -25 -37 0 -21 11 -30 60 -54 50 -25 73
-30 141 -30 88 -1 117 11 112 48 -9 61 -211 112 -288 73z"/>
<path d="M7097 6553 c-34 -9 -15 -46 38 -75 96 -52 235 -60 235 -14 0 45 -196
109 -273 89z"/>
<path d="M1055 6544 c-69 -17 -91 -38 -80 -75 15 -45 162 -81 268 -65 42 7 87
36 87 57 0 19 -49 56 -92 69 -47 14 -151 22 -183 14z"/>
<path d="M5223 6543 c-28 -6 -45 -26 -37 -46 10 -27 119 -75 187 -82 141 -15
162 55 31 105 -52 19 -144 31 -181 23z"/>
<path d="M3058 6514 c-35 -18 -35 -38 -3 -68 50 -46 217 -72 275 -43 37 18 33
56 -8 83 -62 42 -210 58 -264 28z"/>
<path d="M6832 6521 c-47 -29 62 -99 172 -110 108 -11 138 18 67 66 -64 43
-201 68 -239 44z"/>
<path d="M640 6508 c-87 -15 -106 -79 -34 -113 59 -28 155 -40 220 -26 112 22
127 83 29 122 -41 16 -163 26 -215 17z"/>
<path d="M4921 6512 c-35 -11 -48 -36 -30 -58 39 -47 211 -89 272 -65 31 12
36 40 10 64 -48 43 -193 77 -252 59z"/>
<path d="M2715 6490 c-105 -42 10 -130 168 -130 113 0 155 35 103 84 -48 43
-210 71 -271 46z"/>
<path d="M6563 6493 c-39 -15 21 -74 99 -98 70 -20 177 -20 185 1 16 43 -113
105 -216 103 -31 0 -62 -3 -68 -6z"/>
<path d="M4600 6477 c-36 -18 -36 -42 2 -70 69 -53 223 -75 268 -39 27 22 19
45 -27 72 -74 43 -194 62 -243 37z"/>
<path d="M196 6470 c-62 -20 -83 -62 -47 -94 53 -48 239 -63 312 -25 34 17 40
24 37 47 -5 46 -72 74 -182 78 -50 2 -104 -1 -120 -6z"/>
<path d="M6310 6471 c-18 -5 -25 -14 -25 -31 0 -67 281 -131 293 -68 10 52
-180 122 -268 99z"/>
<path d="M2342 6456 c-41 -19 -50 -41 -26 -68 63 -71 290 -91 324 -29 14 26
-18 64 -72 86 -60 24 -184 30 -226 11z"/>
<path d="M4291 6452 c-33 -10 -49 -37 -35 -59 35 -56 232 -96 289 -59 30 20
32 37 6 60 -46 42 -200 76 -260 58z"/>
<path d="M6023 6440 c-75 -30 33 -108 172 -125 107 -14 141 37 56 84 -75 41
-180 60 -228 41z"/>
<path d="M2005 6434 c-80 -20 -102 -50 -64 -90 31 -33 107 -54 196 -54 208 0
158 126 -57 144 -30 3 -64 3 -75 0z"/>
<path d="M3960 6417 c-107 -38 16 -130 176 -131 74 -1 104 12 104 44 0 58
-193 119 -280 87z"/>
<path d="M5740 6412 c-31 -10 -37 -37 -15 -63 57 -62 295 -91 295 -36 0 55
-196 124 -280 99z"/>
<path d="M7343 6403 c-22 -8 -14 -40 13 -62 36 -28 145 -61 204 -61 55 0 81
20 59 46 -42 51 -219 100 -276 77z"/>
<path d="M1585 6393 c-28 -7 -55 -33 -55 -53 0 -65 207 -117 304 -76 41 17 50
30 42 60 -10 39 -86 68 -186 72 -47 2 -94 0 -105 -3z"/>
<path d="M3589 6369 c-18 -18 -19 -23 -7 -42 24 -38 103 -70 184 -75 115 -7
169 25 123 74 -57 60 -254 89 -300 43z"/>
<path d="M5440 6378 c-35 -19 -31 -48 9 -75 78 -53 231 -72 266 -33 17 19 17
20 -14 49 -55 52 -209 86 -261 59z"/>
<path d="M7076 6365 c-16 -17 -16 -19 4 -40 47 -50 193 -89 264 -71 85 21 -51
110 -188 123 -51 4 -65 2 -80 -12z"/>
<path d="M1190 6359 c-76 -23 -89 -67 -32 -105 86 -58 279 -57 319 2 31 47
-59 101 -181 109 -39 2 -87 0 -106 -6z"/>
<path d="M3258 6349 c-35 -13 -45 -45 -23 -69 34 -38 115 -64 202 -64 73 -1
85 2 105 22 27 26 20 44 -31 79 -56 38 -189 55 -253 32z"/>
<path d="M5118 6340 c-65 -40 77 -123 209 -125 112 0 125 53 25 102 -45 22
-73 29 -137 31 -44 1 -88 -2 -97 -8z"/>
<path d="M6813 6344 c-19 -8 -16 -38 5 -56 71 -63 232 -95 279 -56 40 33 -91
106 -204 113 -37 3 -74 2 -80 -1z"/>
<path d="M751 6312 c-71 -36 -67 -71 11 -110 111 -56 308 -31 308 39 0 68
-226 119 -319 71z"/>
<path d="M2911 6318 c-68 -26 -67 -64 4 -104 135 -77 354 -32 262 54 -49 46
-199 74 -266 50z"/>
<path d="M4808 6309 c-40 -23 -7 -72 72 -106 46 -19 167 -28 203 -14 91 35
-57 131 -202 131 -31 0 -64 -5 -73 -11z"/>
<path d="M6543 6310 c-74 -30 53 -114 191 -126 70 -7 103 9 92 42 -17 55 -212
112 -283 84z"/>
<path d="M313 6275 c-107 -46 -30 -130 132 -142 88 -7 154 9 186 43 l23 24
-20 28 c-12 15 -41 34 -70 44 -61 21 -205 23 -251 3z"/>
<path d="M2513 6270 c-39 -24 -41 -43 -8 -74 55 -51 229 -75 295 -41 35 18 40
53 11 79 -56 51 -238 73 -298 36z"/>
<path d="M4490 6277 c-87 -44 43 -131 197 -132 81 0 110 16 99 53 -20 61 -224
116 -296 79z"/>
<path d="M6262 6280 c-54 -23 1 -85 101 -115 51 -15 142 -20 171 -9 23 9 20
37 -8 63 -49 47 -210 84 -264 61z"/>
<path d="M2129 6235 c-38 -21 -42 -40 -14 -73 32 -38 109 -62 199 -62 74 0
111 13 130 43 16 25 -2 48 -64 80 -46 23 -65 27 -139 27 -55 -1 -96 -6 -112
-15z"/>
<path d="M4148 6239 c-26 -15 -22 -54 8 -78 66 -52 241 -75 283 -37 12 11 21
24 21 31 0 20 -46 55 -99 75 -56 22 -183 27 -213 9z"/>
<path d="M5962 6241 c-8 -4 -12 -19 -10 -32 7 -55 224 -123 286 -90 50 27 13
74 -84 111 -56 21 -167 27 -192 11z"/>
<path d="M7594 6235 c-11 -27 4 -43 72 -76 57 -28 78 -33 143 -34 70 0 76 2
79 21 4 28 -35 56 -116 83 -74 25 -170 28 -178 6z"/>
<path d="M1758 6209 c-121 -35 -64 -123 95 -149 103 -16 207 15 207 63 0 22
-42 55 -90 72 -57 20 -164 27 -212 14z"/>
<path d="M3813 6206 c-95 -43 35 -136 191 -136 134 0 156 60 42 114 -70 33
-185 44 -233 22z"/>
<path d="M5663 6206 c-63 -46 79 -130 215 -127 88 2 114 27 70 69 -61 56 -238
92 -285 58z"/>
<path d="M7335 6207 c-20 -15 -20 -16 8 -44 30 -32 124 -69 199 -79 36 -5 54
-2 73 10 36 24 20 47 -58 86 -77 38 -189 51 -222 27z"/>
<path d="M5374 6179 c-103 -30 19 -127 172 -137 78 -5 114 7 114 38 0 31 -73
77 -150 94 -77 18 -91 18 -136 5z"/>
<path d="M7073 6180 c-13 -5 -23 -14 -23 -21 0 -24 65 -70 127 -89 156 -48
255 -3 139 65 -75 44 -192 65 -243 45z"/>
<path d="M1351 6170 c-88 -21 -93 -83 -8 -124 130 -63 323 -33 303 47 -15 62
-179 104 -295 77z"/>
<path d="M3453 6168 c-91 -44 37 -139 187 -139 166 -1 172 87 10 135 -61 18
-164 20 -197 4z"/>
<path d="M5044 6140 c-89 -36 36 -129 186 -138 64 -4 79 -1 99 16 24 19 24 20
8 46 -40 61 -217 107 -293 76z"/>
<path d="M6787 6143 c-14 -13 -6 -40 17 -62 51 -48 217 -87 264 -62 77 41 -69
131 -214 131 -33 0 -64 -3 -67 -7z"/>
<path d="M917 6126 c-52 -19 -68 -35 -65 -65 7 -56 125 -98 251 -88 75 5 120
28 125 65 4 28 -35 64 -85 81 -61 19 -182 24 -226 7z"/>
<path d="M3083 6128 c-91 -44 35 -139 188 -142 57 0 82 4 102 17 57 37 22 93
-76 122 -58 17 -181 19 -214 3z"/>
<path d="M6508 6109 c-45 -26 -6 -73 88 -109 160 -59 282 -15 168 62 -70 47
-212 73 -256 47z"/>
<path d="M2755 6104 c-108 -27 -112 -84 -10 -130 107 -47 253 -41 277 12 10
21 8 28 -16 53 -42 44 -186 81 -251 65z"/>
<path d="M4706 6097 c-66 -48 72 -137 214 -137 141 0 126 91 -23 135 -63 19
-167 20 -191 2z"/>
<path d="M485 6086 c-43 -12 -85 -44 -85 -66 0 -4 9 -19 20 -33 28 -36 110
-61 200 -61 88 -1 144 16 167 50 14 22 14 26 -2 50 -37 57 -196 89 -300 60z"/>
<path d="M7873 6084 c-28 -12 -12 -45 34 -74 98 -62 263 -82 263 -31 0 43
-116 100 -217 106 -37 3 -74 2 -80 -1z"/>
<path d="M6206 6065 c-15 -15 -15 -20 -3 -39 34 -52 196 -107 264 -90 79 20
61 71 -40 115 -71 30 -196 39 -221 14z"/>
<path d="M2335 6053 c-42 -15 -51 -22 -53 -46 -2 -16 2 -34 8 -42 45 -54 240
-85 310 -48 19 10 36 26 38 36 14 75 -186 141 -303 100z"/>
<path d="M4361 6051 c-33 -33 -3 -74 79 -108 62 -25 212 -26 236 -1 28 28 4
64 -64 96 -44 21 -76 27 -144 30 -77 4 -88 2 -107 -17z"/>
<path d="M7623 6053 c-63 -12 -18 -75 82 -112 118 -44 217 -36 201 17 -9 27
-112 78 -185 92 -55 10 -60 10 -98 3z"/>
<path d="M5920 6037 c-35 -17 -36 -42 -5 -72 64 -59 251 -93 291 -53 39 39
-23 92 -143 123 -70 18 -110 19 -143 2z"/>
<path d="M4077 6030 c-42 -4 -63 -11 -73 -25 -20 -26 -18 -33 15 -64 62 -58
236 -86 294 -48 90 58 -72 152 -236 137z"/>
<path d="M1910 6003 c-48 -25 -52 -61 -10 -96 77 -65 273 -74 326 -16 28 31 8
68 -50 98 -66 34 -212 42 -266 14z"/>
<path d="M7338 6010 c-26 -16 -22 -35 12 -63 39 -33 128 -66 199 -73 46 -5 60
-3 79 12 22 18 22 20 6 43 -40 56 -246 113 -296 81z"/>
<path d="M5610 5997 c-81 -41 30 -128 182 -142 75 -7 113 8 113 45 0 65 -216
137 -295 97z"/>
<path d="M3696 5989 c-72 -17 -85 -47 -38 -92 70 -67 260 -89 312 -37 17 17
18 24 8 45 -14 31 -93 71 -167 85 -61 11 -62 11 -115 -1z"/>
<path d="M1519 5971 c-53 -17 -69 -31 -69 -60 0 -60 88 -103 217 -104 84 0
132 17 156 54 16 26 -17 67 -71 91 -50 22 -188 34 -233 19z"/>
<path d="M7053 5969 c-20 -20 -16 -35 17 -62 39 -33 128 -66 199 -73 46 -5 60
-3 80 13 34 28 16 54 -65 94 -52 26 -81 33 -142 37 -55 3 -81 0 -89 -9z"/>
<path d="M5283 5959 c-25 -13 -35 -33 -27 -53 16 -43 150 -96 241 -96 128 0
123 82 -8 131 -63 24 -175 34 -206 18z"/>
<path d="M3288 5935 c-33 -18 -37 -54 -11 -81 47 -46 179 -80 257 -65 104 19
108 79 8 128 -69 34 -209 44 -254 18z"/>
<path d="M1120 5933 c-77 -12 -123 -55 -106 -98 16 -42 117 -77 222 -77 116 1
185 45 155 101 -28 51 -171 90 -271 74z"/>
<path d="M6763 5929 c-19 -19 -16 -33 10 -56 67 -61 231 -103 288 -73 44 24
10 73 -76 111 -61 27 -203 39 -222 18z"/>
<path d="M4953 5916 c-97 -44 47 -146 205 -146 70 0 89 6 102 30 37 69 -209
161 -307 116z"/>
<path d="M8151 5911 c-48 -30 78 -112 202 -133 57 -9 70 -9 92 6 21 14 23 20
15 36 -33 61 -253 126 -309 91z"/>
<path d="M2910 5893 c-100 -52 -3 -140 164 -150 141 -9 200 37 132 102 -41 38
-90 55 -186 61 -60 4 -82 2 -110 -13z"/>
<path d="M6512 5900 c-71 -11 -75 -45 -11 -91 66 -47 220 -75 270 -49 54 29
-16 100 -126 128 -69 17 -89 19 -133 12z"/>
<path d="M620 5872 c-27 -10 -50 -28 -60 -44 -14 -26 -13 -29 14 -57 40 -41
112 -64 205 -63 113 1 171 29 171 83 0 77 -208 127 -330 81z"/>
<path d="M4623 5879 c-18 -5 -37 -19 -44 -30 -9 -18 -5 -26 29 -58 48 -46 112
-66 208 -66 57 0 76 4 93 19 27 24 26 28 -4 65 -46 54 -205 94 -282 70z"/>
<path d="M7880 5865 c-44 -53 223 -166 298 -126 27 14 28 42 4 64 -66 60 -269
102 -302 62z"/>
<path d="M2546 5859 c-105 -25 -100 -99 9 -145 22 -9 78 -19 125 -21 69 -4 92
-1 120 14 84 44 24 122 -118 152 -61 13 -81 13 -136 0z"/>
<path d="M6163 5849 c-31 -32 -1 -73 79 -109 71 -31 150 -43 198 -30 75 20 60
67 -36 115 -47 23 -76 29 -144 33 -61 3 -89 0 -97 -9z"/>
<path d="M4250 5828 c-111 -59 122 -188 268 -149 134 37 17 150 -163 158 -53
3 -88 0 -105 -9z"/>
<path d="M7613 5829 c-20 -20 -16 -35 17 -62 72 -61 266 -97 294 -54 17 27 -2
48 -78 86 -55 28 -82 35 -144 39 -55 3 -81 0 -89 -9z"/>
<path d="M2117 5806 c-75 -27 -87 -60 -38 -105 45 -42 128 -64 220 -59 92 5
131 26 131 69 0 75 -198 135 -313 95z"/>
<path d="M5853 5805 c-30 -21 -29 -36 5 -67 76 -74 281 -105 312 -48 14 27
-27 72 -92 100 -70 31 -193 39 -225 15z"/>
<path d="M3890 5783 c-44 -23 -49 -51 -14 -86 86 -86 334 -96 334 -14 0 77
-228 148 -320 100z"/>
<path d="M7331 5787 c-20 -24 -4 -54 43 -82 58 -34 131 -55 193 -55 66 0 83 7
83 35 0 29 -22 48 -95 81 -74 34 -203 46 -224 21z"/>
<path d="M5538 5769 c-89 -35 9 -125 166 -152 105 -18 164 11 138 68 -27 59
-226 115 -304 84z"/>
<path d="M1673 5750 c-123 -55 -7 -161 178 -161 138 0 203 62 129 125 -66 55
-225 74 -307 36z"/>
<path d="M7048 5750 c-67 -41 68 -133 216 -147 51 -4 65 -2 85 15 25 19 25 20
7 47 -28 42 -131 86 -218 91 -44 3 -80 0 -90 -6z"/>
<path d="M3515 5740 c-97 -39 -17 -134 135 -160 100 -17 190 11 190 60 0 29
-55 71 -120 91 -63 19 -168 24 -205 9z"/>
<path d="M8463 5740 c-47 -20 -25 -59 57 -100 166 -84 333 -53 201 37 -72 49
-211 83 -258 63z"/>
<path d="M5230 5730 c-49 -9 -60 -17 -60 -45 0 -57 123 -118 241 -119 71 -1
109 18 109 55 0 58 -187 129 -290 109z"/>
<path d="M1241 5707 c-19 -8 -44 -25 -55 -40 -20 -27 -20 -27 0 -54 50 -70
213 -103 319 -66 92 33 91 99 -2 143 -59 28 -208 37 -262 17z"/>
<path d="M6753 5710 c-28 -11 -31 -50 -5 -73 63 -57 233 -102 287 -76 65 31
29 88 -82 129 -65 24 -167 35 -200 20z"/>
<path d="M3156 5699 c-109 -26 -100 -97 19 -151 65 -29 193 -32 243 -5 67 36
29 105 -78 140 -63 20 -138 27 -184 16z"/>
<path d="M8183 5693 c-7 -2 -13 -13 -13 -22 0 -74 282 -164 330 -106 39 46
-131 136 -253 134 -29 0 -58 -3 -64 -6z"/>
<path d="M4853 5675 c-90 -39 18 -138 173 -160 63 -8 130 8 145 36 41 77 -205
173 -318 124z"/>
<path d="M6472 5669 c-47 -10 -58 -23 -46 -56 7 -20 28 -37 77 -62 56 -29 81
-35 150 -39 73 -4 84 -2 100 16 15 16 16 24 7 41 -32 60 -200 118 -288 100z"/>
<path d="M785 5654 c-44 -16 -75 -46 -75 -74 0 -29 63 -76 121 -91 186 -46
361 38 259 125 -62 52 -216 72 -305 40z"/>
<path d="M2758 5651 c-117 -24 -117 -101 0 -154 50 -22 159 -34 214 -23 42 8
78 39 78 67 0 66 -178 133 -292 110z"/>
<path d="M7908 5650 c-26 -16 -22 -34 16 -68 61 -54 211 -95 280 -78 39 10 35
48 -8 81 -72 55 -243 93 -288 65z"/>
<path d="M4488 5624 c-58 -31 -28 -87 70 -131 75 -34 208 -39 241 -9 29 27 26
53 -10 87 -61 57 -237 88 -301 53z"/>
<path d="M6132 5620 c-59 -25 -36 -77 53 -121 53 -26 82 -33 144 -37 120 -7
155 28 91 88 -59 55 -228 96 -288 70z"/>
<path d="M7638 5609 c-89 -34 62 -142 216 -155 74 -7 103 8 92 49 -16 64 -228
137 -308 106z"/>
<path d="M2349 5599 c-59 -9 -88 -24 -98 -52 -18 -48 35 -96 134 -122 101 -26
194 -14 236 32 22 22 22 26 8 51 -38 68 -164 109 -280 91z"/>
<path d="M4119 5576 c-50 -29 -46 -65 14 -110 67 -51 225 -73 287 -41 23 12
30 23 30 44 0 60 -101 113 -225 118 -58 2 -87 -1 -106 -11z"/>
<path d="M5793 5565 c-68 -49 37 -133 197 -159 45 -7 111 8 127 30 38 52 -91
132 -227 141 -59 4 -80 1 -97 -12z"/>
<path d="M7335 5557 c-16 -13 -18 -20 -10 -44 21 -57 209 -127 295 -108 121
27 -31 150 -200 162 -48 4 -70 1 -85 -10z"/>
<path d="M8763 5554 c-7 -3 -13 -17 -13 -30 0 -74 296 -163 334 -101 26 43
-125 125 -244 133 -36 2 -71 1 -77 -2z"/>
<path d="M1860 5528 c-103 -52 -40 -139 121 -169 81 -15 170 1 205 37 32 31
30 50 -9 89 -65 65 -230 87 -317 43z"/>
<path d="M3755 5533 c-31 -8 -55 -34 -55 -60 0 -57 114 -115 229 -117 93 -1
134 16 139 58 7 61 -91 116 -217 122 -42 1 -85 0 -96 -3z"/>
<path d="M5452 5514 c-79 -55 66 -158 224 -159 57 0 76 4 93 19 29 27 26 44
-14 82 -66 62 -248 97 -303 58z"/>
<path d="M7026 5504 c-23 -22 -20 -32 17 -68 63 -64 247 -108 302 -72 34 22
32 33 -15 77 -69 66 -262 106 -304 63z"/>
<path d="M8510 5511 c-38 -11 -37 -43 4 -78 61 -55 211 -96 281 -79 21 5 26
12 23 34 -7 64 -219 149 -308 123z"/>
<path d="M1460 5491 c-169 -36 -132 -156 59 -191 125 -22 241 18 241 83 0 69
-180 134 -300 108z"/>
<path d="M3343 5471 c-37 -17 -43 -24 -43 -51 0 -40 35 -73 109 -101 112 -42
260 -21 269 38 5 37 -15 60 -82 93 -85 42 -190 51 -253 21z"/>
<path d="M5111 5467 c-65 -33 -44 -83 54 -131 48 -23 77 -30 140 -33 93 -5
128 8 133 48 9 77 -235 164 -327 116z"/>
<path d="M6752 5470 c-44 -10 -56 -23 -48 -53 19 -78 271 -152 336 -99 32 26
19 57 -38 93 -73 46 -186 73 -250 59z"/>
<path d="M8216 5458 c-10 -8 -17 -23 -15 -33 10 -51 168 -125 268 -125 179 0
23 149 -174 166 -43 4 -65 2 -79 -8z"/>
<path d="M980 5431 c-122 -40 -134 -113 -28 -165 101 -50 253 -44 319 11 16
14 29 35 29 47 0 28 -43 70 -95 92 -45 18 -186 28 -225 15z"/>
<path d="M2940 5423 c-27 -10 -60 -46 -60 -66 0 -11 16 -35 36 -53 93 -88 342
-88 352 0 8 67 -104 127 -236 125 -42 0 -84 -3 -92 -6z"/>
<path d="M4743 5414 c-65 -33 -32 -98 72 -146 68 -31 212 -33 244 -4 44 39 14
89 -79 130 -79 36 -189 45 -237 20z"/>
<path d="M6434 5420 c-44 -10 -54 -18 -54 -45 0 -75 228 -161 323 -121 41 17
47 38 21 74 -38 55 -212 110 -290 92z"/>
<path d="M7929 5401 c-22 -18 -22 -20 -7 -44 37 -55 164 -107 263 -107 101 0
113 46 27 101 -98 62 -238 87 -283 50z"/>
<path d="M2530 5369 c-44 -13 -80 -46 -80 -74 0 -24 40 -65 85 -88 57 -28 150
-41 212 -28 187 37 102 181 -117 196 -36 2 -81 0 -100 -6z"/>
<path d="M4410 5370 c-117 -21 -105 -103 22 -160 98 -43 247 -35 269 14 35 76
-154 171 -291 146z"/>
<path d="M6060 5350 c-27 -27 -26 -34 13 -76 91 -99 357 -116 333 -21 -20 81
-287 156 -346 97z"/>
<path d="M7635 5357 c-68 -51 104 -160 252 -162 78 0 105 19 83 61 -40 73
-275 144 -335 101z"/>
<path d="M9086 5358 c-13 -11 -16 -21 -11 -37 15 -50 178 -121 274 -121 60 0
76 11 67 44 -17 66 -274 156 -330 114z"/>
<path d="M2093 5311 c-76 -20 -110 -69 -79 -115 55 -85 307 -115 377 -45 66
66 -39 156 -194 164 -40 3 -87 0 -104 -4z"/>
<path d="M3993 5309 c-18 -5 -40 -20 -49 -34 -31 -48 25 -107 135 -139 163
-48 298 18 215 105 -54 56 -219 94 -301 68z"/>
<path d="M5733 5306 c-24 -11 -33 -22 -33 -39 0 -64 111 -126 239 -134 86 -5
124 9 129 46 12 79 -235 173 -335 127z"/>
<path d="M7340 5308 c-55 -29 -24 -81 78 -130 54 -25 83 -33 148 -36 66 -4 83
-1 97 13 24 24 22 33 -20 75 -66 64 -242 110 -303 78z"/>
<path d="M8818 5310 c-60 -37 39 -118 186 -155 73 -18 126 -14 146 10 26 31
-46 93 -148 129 -58 21 -162 30 -184 16z"/>
<path d="M7040 5257 c-113 -39 36 -162 211 -174 68 -5 79 -3 97 15 30 30 17
59 -42 99 -80 54 -204 82 -266 60z"/>
<path d="M8543 5260 c-34 -14 -28 -43 16 -83 49 -44 138 -78 223 -85 138 -10
130 67 -13 132 -86 40 -180 54 -226 36z"/>
<path d="M1634 5249 c-124 -29 -123 -132 1 -178 114 -43 234 -36 296 16 37 32
37 63 -1 101 -54 54 -200 84 -296 61z"/>
<path d="M3580 5245 c-40 -18 -50 -31 -50 -63 0 -61 124 -123 247 -124 238 -1
155 187 -87 199 -53 2 -85 -1 -110 -12z"/>
<path d="M5368 5245 c-92 -52 49 -164 217 -173 71 -4 83 -2 108 18 15 12 27
28 27 35 0 27 -55 78 -110 103 -71 31 -201 41 -242 17z"/>
<path d="M8278 5212 c-62 -7 -60 -56 4 -102 87 -63 243 -99 293 -66 32 21 32
37 -2 71 -61 60 -204 107 -295 97z"/>
<path d="M5036 5199 c-50 -12 -66 -25 -66 -56 0 -65 131 -135 257 -136 87 0
123 18 123 62 0 78 -196 159 -314 130z"/>
<path d="M6700 5198 c-90 -48 49 -159 216 -175 83 -8 124 8 124 47 0 59 -125
127 -250 136 -43 3 -73 1 -90 -8z"/>
<path d="M3171 5188 c-19 -7 -43 -25 -54 -39 -18 -25 -18 -28 -3 -57 43 -83
238 -130 343 -82 121 55 8 176 -174 186 -48 3 -91 -1 -112 -8z"/>
<path d="M1120 5168 c-25 -13 -52 -35 -60 -50 -13 -25 -13 -29 6 -55 83 -112
370 -120 414 -12 11 26 10 34 -7 57 -36 50 -107 77 -213 80 -83 3 -101 0 -140
-20z"/>
<path d="M9433 5160 c-54 -22 -10 -79 101 -131 54 -25 87 -34 148 -37 86 -5
102 5 80 53 -29 64 -260 144 -329 115z"/>
<path d="M7950 5140 c-25 -25 -17 -45 37 -89 79 -65 276 -102 309 -57 59 81
-272 220 -346 146z"/>
<path d="M4652 5139 c-118 -28 -72 -133 79 -180 145 -45 280 0 234 79 -43 73
-206 125 -313 101z"/>
<path d="M6351 5131 c-26 -26 -26 -28 -2 -68 31 -49 137 -95 233 -101 61 -4
83 -1 103 12 84 55 -62 165 -231 174 -73 4 -84 2 -103 -17z"/>
<path d="M2748 5127 c-54 -17 -78 -42 -78 -77 0 -38 27 -65 99 -98 71 -33 205
-38 258 -9 86 47 54 129 -68 172 -59 21 -166 27 -211 12z"/>
<path d="M9153 5103 c-22 -8 -14 -48 15 -75 75 -71 260 -121 323 -88 25 14 24
22 -7 60 -31 36 -107 77 -179 96 -49 14 -128 17 -152 7z"/>
<path d="M7648 5090 c-29 -18 -22 -55 18 -90 106 -93 334 -122 334 -43 0 60
-138 134 -259 140 -44 2 -83 -1 -93 -7z"/>
<path d="M6015 5079 c-47 -28 -46 -52 4 -100 75 -71 240 -109 311 -72 68 35
42 91 -66 144 -55 27 -80 33 -147 36 -52 2 -89 -1 -102 -8z"/>
<path d="M4240 5073 c-46 -18 -62 -61 -40 -103 15 -28 94 -71 159 -86 68 -16
104 -17 153 -4 106 30 87 116 -37 171 -50 23 -200 37 -235 22z"/>
<path d="M2285 5059 c-44 -17 -75 -49 -75 -79 0 -57 108 -120 220 -128 205
-14 274 114 102 190 -55 25 -198 34 -247 17z"/>
<path d="M8890 5051 c-34 -9 -38 -46 -8 -78 48 -52 183 -103 273 -103 179 0 7
162 -195 184 -25 3 -56 1 -70 -3z"/>
<path d="M7350 5037 c-116 -39 43 -171 222 -185 112 -8 150 34 86 95 -43 40
-103 70 -180 88 -74 17 -82 18 -128 2z"/>
<path d="M5646 5009 c-32 -26 -33 -49 -1 -87 39 -47 137 -86 226 -90 120 -6
168 32 123 96 -58 83 -280 135 -348 81z"/>
<path d="M3823 5001 c-69 -32 -68 -83 0 -135 94 -72 271 -85 335 -26 29 27 28
52 -5 91 -63 74 -241 112 -330 70z"/>
<path d="M1851 4999 c-79 -15 -130 -65 -112 -111 14 -38 66 -76 128 -94 74
-21 205 -16 250 11 104 61 35 163 -132 194 -66 12 -72 12 -134 0z"/>
<path d="M8593 4990 c-37 -15 -29 -53 19 -94 71 -62 221 -105 292 -85 20 6 37
15 37 22 5 45 -17 70 -93 108 -99 50 -203 70 -255 49z"/>
<path d="M7039 4983 c-15 -2 -35 -13 -44 -23 -58 -65 104 -172 263 -174 66 -1
76 2 93 22 17 22 17 26 4 53 -37 70 -211 137 -316 122z"/>
<path d="M5283 4950 c-65 -39 -28 -112 82 -162 68 -31 221 -33 254 -4 12 11
21 29 21 40 0 96 -258 187 -357 126z"/>
<path d="M3395 4935 c-62 -32 -70 -67 -25 -118 79 -90 291 -117 362 -47 15 16
28 36 28 46 0 31 -81 98 -141 117 -70 21 -183 22 -224 2z"/>
<path d="M9770 4935 c-49 -59 226 -196 335 -167 118 32 -101 182 -265 182 -39
0 -62 -5 -70 -15z"/>
<path d="M1379 4929 c-79 -12 -139 -55 -139 -101 0 -29 58 -86 108 -105 34
-13 74 -18 142 -18 104 0 144 14 183 66 18 25 18 28 3 61 -34 70 -173 116
-297 97z"/>
<path d="M8293 4928 c-37 -18 -29 -51 23 -96 78 -69 254 -114 309 -78 34 22
32 46 -7 83 -80 75 -256 125 -325 91z"/>
<path d="M6670 4907 c-38 -19 -38 -58 1 -96 41 -42 94 -68 175 -87 76 -17 132
-12 166 16 93 75 -221 228 -342 167z"/>
<path d="M4901 4887 c-13 -6 -30 -21 -37 -32 -12 -18 -11 -26 4 -55 13 -26 34
-44 86 -70 59 -30 81 -36 151 -38 62 -3 90 0 113 12 116 60 -41 196 -225 196
-38 0 -79 -6 -92 -13z"/>
<path d="M9535 4893 c-53 -13 -57 -39 -14 -83 55 -54 154 -96 254 -106 74 -7
102 8 91 50 -16 64 -245 160 -331 139z"/>
<path d="M2953 4866 c-17 -8 -39 -27 -49 -41 -17 -26 -17 -29 2 -64 55 -103
308 -145 388 -64 14 14 26 33 26 42 0 35 -39 79 -96 107 -48 23 -73 29 -148
31 -64 2 -101 -1 -123 -11z"/>
<path d="M7990 4868 c-87 -46 37 -154 218 -190 60 -12 126 1 136 28 23 60
-128 154 -270 169 -40 4 -67 2 -84 -7z"/>
<path d="M6330 4848 c-29 -11 -36 -18 -38 -47 -4 -44 30 -80 110 -116 150 -68
296 -47 274 39 -20 78 -246 159 -346 124z"/>
<path d="M4535 4831 c-73 -18 -96 -50 -75 -101 26 -64 136 -112 257 -114 68
-1 86 2 110 20 43 32 42 67 -4 113 -61 61 -207 103 -288 82z"/>
<path d="M9220 4815 c-28 -33 24 -90 126 -136 201 -92 344 -25 176 82 -94 59
-271 91 -302 54z"/>
<path d="M2493 4791 c-75 -35 -83 -85 -23 -142 85 -81 281 -99 360 -33 58 50
27 121 -72 164 -75 33 -207 38 -265 11z"/>
<path d="M7658 4799 c-10 -5 -18 -22 -18 -36 0 -80 228 -183 340 -153 103 28
30 131 -128 180 -69 21 -166 26 -194 9z"/>
<path d="M5970 4784 c-61 -26 -65 -73 -11 -125 107 -101 349 -119 359 -26 5
39 -58 98 -135 127 -57 22 -183 36 -213 24z"/>
<path d="M4121 4759 c-51 -10 -91 -43 -91 -75 0 -32 52 -88 103 -112 111 -52
254 -50 297 5 27 34 25 55 -6 93 -34 40 -90 68 -173 86 -74 15 -69 15 -130 3z"/>
<path d="M8935 4756 c-45 -32 29 -113 142 -156 69 -27 180 -37 211 -21 48 26
15 81 -79 130 -105 57 -232 78 -274 47z"/>
<path d="M7343 4735 c-98 -42 32 -167 205 -197 58 -10 76 -9 108 3 102 39 9
149 -163 194 -70 18 -108 18 -150 0z"/>
<path d="M2047 4726 c-87 -24 -122 -81 -85 -136 89 -132 428 -124 428 9 0 31
-55 86 -109 110 -64 27 -171 35 -234 17z"/>
<path d="M10153 4724 c-27 -12 -13 -52 28 -88 87 -74 286 -129 334 -92 19 14
19 17 5 43 -19 35 -93 85 -168 114 -55 21 -174 35 -199 23z"/>
<path d="M5580 4702 c-99 -49 -4 -161 167 -197 96 -21 183 -1 198 44 31 98
-244 214 -365 153z"/>
<path d="M8650 4697 c-74 -37 3 -125 155 -177 63 -22 154 -26 186 -10 11 6 19
21 19 36 0 51 -97 115 -225 149 -71 18 -102 19 -135 2z"/>
<path d="M3654 4676 c-35 -15 -64 -51 -64 -78 0 -27 55 -84 103 -106 73 -34
160 -47 224 -32 107 24 133 85 63 151 -70 67 -243 101 -326 65z"/>
<path d="M7001 4668 c-39 -21 -48 -44 -31 -75 38 -68 177 -133 284 -133 69 0
100 17 104 56 6 66 -135 150 -268 160 -43 3 -73 1 -89 -8z"/>
<path d="M9882 4654 c-28 -19 -28 -26 4 -63 68 -81 270 -151 347 -122 61 24
20 84 -96 141 -115 56 -213 74 -255 44z"/>
<path d="M1541 4646 c-58 -19 -101 -61 -101 -99 0 -69 124 -137 248 -137 90 0
139 15 180 56 28 28 33 39 27 62 -10 40 -62 89 -114 107 -65 23 -186 28 -240
11z"/>
<path d="M5203 4639 c-18 -5 -40 -20 -49 -34 -54 -83 117 -193 287 -183 58 3
73 8 95 30 32 32 28 63 -15 106 -72 71 -221 109 -318 81z"/>
<path d="M8340 4628 c-88 -47 43 -163 225 -200 99 -20 168 21 131 77 -56 85
-280 163 -356 123z"/>
<path d="M3250 4611 c-105 -21 -140 -84 -84 -151 103 -122 404 -118 404 6 0
88 -186 171 -320 145z"/>
<path d="M6644 4596 c-40 -18 -48 -40 -28 -82 33 -69 161 -128 280 -129 57 0
76 4 93 19 46 41 9 107 -88 155 -95 48 -198 63 -257 37z"/>
<path d="M9596 4584 c-20 -19 -20 -20 0 -53 49 -84 291 -170 365 -131 48 26 1
94 -98 144 -104 52 -236 72 -267 40z"/>
<path d="M4770 4548 c-53 -36 -52 -69 2 -122 56 -56 139 -88 233 -89 93 -2
139 22 143 74 4 48 -24 81 -105 121 -55 27 -79 33 -152 36 -78 3 -89 2 -121
-20z"/>
<path d="M8006 4547 c-31 -31 -26 -56 22 -98 119 -105 362 -136 362 -47 0 12
-19 39 -43 63 -56 53 -159 96 -249 103 -61 4 -68 3 -92 -21z"/>
<path d="M2800 4533 c-85 -14 -140 -56 -140 -107 0 -31 70 -95 128 -117 81
-31 201 -32 259 -1 73 38 82 81 27 142 -53 58 -185 98 -274 83z"/>
<path d="M6256 4507 c-30 -30 -31 -38 -10 -78 43 -83 252 -153 353 -118 60 21
66 63 16 118 -53 58 -141 94 -247 99 -82 4 -88 3 -112 -21z"/>
<path d="M9308 4519 c-87 -50 139 -199 302 -199 161 0 71 134 -129 194 -61 18
-147 21 -173 5z"/>
<path d="M4387 4486 c-60 -16 -80 -36 -80 -76 0 -45 31 -81 108 -120 63 -33
74 -35 161 -35 111 0 147 18 152 77 6 65 -73 127 -194 153 -82 17 -85 17 -147
1z"/>
<path d="M7705 4493 c-29 -7 -55 -33 -55 -54 0 -10 12 -32 27 -49 97 -116 370
-166 381 -69 6 49 -69 113 -174 149 -57 20 -147 32 -179 23z"/>
<path d="M10553 4490 c-55 -23 -14 -82 94 -137 97 -50 153 -65 223 -61 49 3
55 6 58 27 7 44 -79 112 -190 150 -70 24 -156 34 -185 21z"/>
<path d="M5918 4452 c-63 -16 -85 -66 -52 -117 38 -59 171 -115 271 -115 186
0 170 136 -24 210 -56 21 -154 32 -195 22z"/>
<path d="M9013 4450 c-15 -6 -23 -18 -23 -34 0 -99 309 -224 390 -158 93 75
-234 245 -367 192z"/>
<path d="M2250 4435 c-86 -39 -104 -97 -49 -159 102 -116 396 -106 424 14 9
39 -31 90 -99 124 -49 26 -71 31 -149 33 -68 3 -101 -1 -127 -12z"/>
<path d="M10278 4419 c-30 -17 -21 -54 22 -92 48 -44 95 -68 184 -96 81 -25
133 -27 164 -5 29 20 28 27 -14 74 -75 83 -294 156 -356 119z"/>
<path d="M7328 4400 c-40 -31 -35 -57 20 -110 60 -58 142 -91 242 -97 66 -5
78 -3 103 17 36 28 34 52 -8 98 -80 89 -292 144 -357 92z"/>
<path d="M3915 4394 c-71 -38 -75 -88 -12 -148 96 -92 300 -114 373 -41 34 34
30 68 -11 114 -52 57 -121 84 -230 88 -69 3 -97 0 -120 -13z"/>
<path d="M8710 4377 c-42 -21 -39 -62 9 -107 115 -110 371 -151 371 -60 0 52
-118 134 -237 165 -69 18 -110 19 -143 2z"/>
<path d="M5516 4370 c-163 -52 10 -239 222 -240 45 0 111 23 124 43 21 33 8
74 -35 114 -73 67 -230 109 -311 83z"/>
<path d="M1786 4359 c-63 -15 -106 -40 -121 -70 -23 -43 -18 -66 23 -110 48
-50 127 -79 219 -79 88 0 135 14 178 52 96 83 -14 198 -205 213 -30 2 -72 0
-94 -6z"/>
<path d="M10012 4353 c-12 -2 -26 -12 -31 -21 -47 -91 307 -254 395 -181 20
17 17 33 -13 69 -67 80 -255 151 -351 133z"/>
<path d="M6965 4318 c-23 -20 -27 -29 -21 -53 35 -140 416 -228 416 -96 0 44
-42 86 -126 128 -64 31 -88 37 -158 41 -76 4 -84 2 -111 -20z"/>
<path d="M3460 4308 c-60 -31 -78 -68 -57 -113 57 -119 320 -168 419 -78 10 9
18 29 18 44 0 90 -105 157 -260 166 -64 4 -81 1 -120 -19z"/>
<path d="M8372 4294 c-89 -62 121 -214 297 -214 63 0 101 19 101 51 0 28 -66
97 -119 124 -105 53 -234 71 -279 39z"/>
<path d="M5115 4289 c-52 -13 -85 -44 -85 -82 0 -42 70 -108 147 -138 76 -30
205 -33 246 -6 35 23 47 54 35 90 -30 86 -226 163 -343 136z"/>
<path d="M9703 4265 c-34 -24 -28 -43 25 -95 59 -57 175 -108 265 -117 53 -4
66 -2 87 15 21 17 23 24 15 48 -33 93 -320 202 -392 149z"/>
<path d="M6610 4249 c-76 -32 -42 -122 69 -183 60 -32 182 -60 225 -50 63 13
86 32 86 68 0 49 -38 89 -126 132 -63 31 -87 38 -152 41 -42 1 -88 -2 -102 -8z"/>
<path d="M10958 4239 c-26 -14 -22 -33 12 -72 56 -64 225 -137 316 -137 58 0
74 8 74 37 0 89 -315 223 -402 172z"/>
<path d="M2995 4226 c-51 -19 -85 -58 -85 -98 0 -67 117 -142 243 -155 113
-12 217 39 217 106 0 42 -56 102 -123 131 -66 30 -193 37 -252 16z"/>
<path d="M8043 4218 c-52 -25 -32 -87 45 -143 65 -47 144 -76 227 -82 62 -5
73 -3 98 17 35 28 31 59 -15 106 -81 85 -275 141 -355 102z"/>
<path d="M4655 4192 c-144 -68 -3 -230 208 -240 166 -9 227 74 127 169 -78 74
-251 111 -335 71z"/>
<path d="M9398 4189 c-47 -27 2 -105 99 -156 105 -56 233 -80 284 -53 47 26 2
104 -90 153 -108 59 -244 85 -293 56z"/>
<path d="M6237 4170 c-43 -13 -57 -29 -57 -66 0 -121 301 -234 405 -152 112
88 -178 269 -348 218z"/>
<path d="M10715 4173 c-54 -14 -58 -46 -13 -92 69 -70 211 -131 308 -131 97 0
112 39 39 105 -80 72 -262 137 -334 118z"/>
<path d="M2520 4141 c-56 -17 -92 -43 -106 -77 -14 -32 -13 -39 3 -72 51 -105
276 -156 395 -90 80 44 86 104 17 170 -64 61 -220 96 -309 69z"/>
<path d="M7702 4140 c-62 -25 -45 -95 36 -155 121 -88 303 -111 345 -44 58 93
-247 253 -381 199z"/>
<path d="M4225 4110 c-60 -20 -90 -62 -80 -110 10 -46 84 -104 165 -130 156
-50 301 0 282 97 -7 39 -76 99 -140 123 -64 25 -182 34 -227 20z"/>
<path d="M9081 4101 c-26 -26 -26 -30 2 -72 87 -130 407 -204 407 -94 0 39
-56 92 -144 136 -70 34 -96 42 -163 46 -73 5 -82 4 -102 -16z"/>
<path d="M10420 4087 c-60 -30 -17 -100 98 -160 116 -61 235 -83 280 -51 30
21 28 38 -14 84 -41 46 -149 102 -239 125 -72 18 -92 19 -125 2z"/>
<path d="M5830 4079 c-63 -25 -77 -74 -38 -125 32 -42 46 -52 118 -87 59 -29
74 -32 157 -32 83 0 94 2 117 24 37 35 34 72 -11 122 -41 46 -94 76 -168 95
-58 16 -139 17 -175 3z"/>
<path d="M7332 4048 c-56 -28 -31 -108 53 -164 95 -65 248 -93 315 -59 24 13
30 22 30 50 0 49 -46 97 -137 142 -64 32 -85 37 -156 40 -49 2 -91 -2 -105 -9z"/>
<path d="M1975 4035 c-89 -31 -121 -113 -69 -175 46 -53 117 -83 214 -88 106
-5 163 9 207 53 68 68 25 157 -100 203 -68 26 -190 29 -252 7z"/>
<path d="M8770 4027 c-31 -16 -37 -57 -13 -93 44 -67 213 -144 317 -144 99 0
123 50 59 121 -81 90 -286 155 -363 116z"/>
<path d="M3765 4016 c-135 -38 -125 -153 20 -226 58 -29 83 -36 148 -39 129
-5 197 32 197 108 0 28 -9 43 -44 77 -77 73 -218 108 -321 80z"/>
<path d="M10144 4012 c-12 -2 -29 -11 -39 -22 -15 -17 -15 -21 -1 -48 41 -79
227 -172 346 -172 42 0 80 24 80 50 0 27 -54 86 -106 116 -89 52 -213 86 -280
76z"/>
<path d="M5416 3990 c-66 -21 -87 -83 -46 -140 68 -95 290 -154 378 -100 48
29 58 59 37 104 -35 73 -152 135 -268 142 -39 2 -85 -1 -101 -6z"/>
<path d="M11393 3979 c-23 -23 -14 -51 27 -90 105 -100 357 -171 390 -109 34
63 -185 197 -340 207 -45 4 -69 1 -77 -8z"/>
<path d="M6992 3970 c-143 -34 -59 -180 139 -241 157 -49 265 3 213 100 -46
87 -245 167 -352 141z"/>
<path d="M8423 3935 c-67 -48 20 -158 167 -210 152 -55 265 -31 244 50 -10 39
-96 110 -171 140 -86 35 -206 45 -240 20z"/>
<path d="M3272 3916 c-78 -26 -111 -73 -92 -131 14 -43 54 -79 125 -112 52
-24 72 -28 150 -28 73 0 98 4 131 22 73 39 82 112 21 171 -76 73 -236 110
-335 78z"/>
<path d="M9812 3914 c-32 -22 -27 -49 18 -98 94 -101 316 -170 380 -118 18 14
21 25 16 45 -26 107 -328 232 -414 171z"/>
<path d="M4998 3896 c-86 -23 -111 -64 -78 -130 38 -79 158 -137 285 -139 246
-2 187 213 -74 269 -78 16 -73 16 -133 0z"/>
<path d="M11128 3900 c-66 -41 42 -147 209 -205 82 -30 183 -34 204 -9 19 24
-15 80 -73 120 -107 73 -292 124 -340 94z"/>
<path d="M6570 3868 c-13 -7 -31 -25 -39 -39 -44 -79 122 -204 290 -216 108
-9 163 30 145 101 -11 43 -56 85 -132 123 -64 31 -87 37 -157 40 -55 3 -90 0
-107 -9z"/>
<path d="M8083 3850 c-56 -23 -47 -88 21 -148 111 -98 332 -137 378 -68 26 38
-25 114 -109 163 -90 53 -228 78 -290 53z"/>
<path d="M9504 3831 c-46 -20 -38 -65 23 -122 48 -45 79 -64 145 -90 169 -67
289 -33 229 64 -44 71 -194 146 -305 153 -39 2 -80 0 -92 -5z"/>
<path d="M2787 3820 c-111 -28 -153 -91 -112 -170 72 -139 398 -164 459 -35
22 45 12 79 -34 125 -65 65 -217 104 -313 80z"/>
<path d="M10836 3804 c-21 -20 -20 -25 7 -65 67 -101 330 -202 402 -155 14 9
25 25 25 36 0 52 -135 147 -259 184 -71 21 -155 21 -175 0z"/>
<path d="M4537 3796 c-120 -33 -125 -124 -11 -211 61 -47 139 -68 234 -63 86
3 127 23 144 70 29 81 -81 180 -229 207 -71 13 -77 13 -138 -3z"/>
<path d="M6186 3777 c-51 -16 -80 -55 -72 -94 15 -67 144 -155 252 -171 111
-17 204 18 204 76 0 111 -246 232 -384 189z"/>
<path d="M7720 3753 c-29 -15 -36 -24 -38 -55 -3 -30 3 -44 32 -76 68 -75 245
-143 332 -126 45 8 84 40 84 68 0 113 -294 249 -410 189z"/>
<path d="M9173 3735 c-15 -10 -23 -27 -23 -46 0 -93 249 -223 381 -199 40 8
69 30 69 54 0 24 -42 77 -87 110 -105 77 -287 120 -340 81z"/>
<path d="M10546 3714 c-21 -20 -20 -32 4 -72 24 -38 119 -103 199 -133 68 -26
194 -37 216 -19 58 48 -57 162 -216 216 -84 28 -179 32 -203 8z"/>
<path d="M2229 3705 c-60 -19 -109 -73 -109 -119 0 -52 37 -97 114 -136 64
-32 76 -35 160 -35 109 0 173 24 206 77 42 67 4 140 -98 190 -53 26 -78 32
-145 35 -53 2 -98 -3 -128 -12z"/>
<path d="M11858 3709 c-32 -18 -21 -53 31 -102 77 -73 229 -137 322 -137 64 0
79 7 79 38 0 93 -343 253 -432 201z"/>
<path d="M4034 3681 c-100 -45 -97 -135 6 -210 60 -44 133 -65 220 -65 236 0
241 192 7 274 -74 26 -177 26 -233 1z"/>
<path d="M5773 3680 c-70 -16 -104 -60 -88 -110 12 -37 76 -100 128 -127 98
-49 235 -60 296 -22 27 18 44 60 36 92 -17 66 -135 145 -249 166 -66 12 -77
12 -123 1z"/>
<path d="M7333 3651 c-42 -26 -49 -53 -25 -99 42 -82 174 -152 302 -159 63 -4
80 -1 108 16 26 17 32 27 32 56 0 121 -302 256 -417 186z"/>
<path d="M8867 3650 c-72 -22 -77 -69 -16 -135 82 -89 267 -154 358 -126 135
40 -18 212 -228 257 -74 15 -75 15 -114 4z"/>
<path d="M10253 3630 c-17 -7 -23 -18 -23 -42 0 -69 152 -172 298 -203 78 -17
127 -11 146 17 67 96 -282 284 -421 228z"/>
<path d="M11593 3620 c-39 -16 -30 -57 25 -109 129 -125 412 -190 412 -95 0
31 -84 105 -164 144 -122 60 -220 81 -273 60z"/>
<path d="M3534 3571 c-52 -24 -74 -55 -74 -103 0 -106 198 -207 351 -178 176
34 183 177 12 262 -59 29 -79 33 -158 36 -72 2 -98 -1 -131 -17z"/>
<path d="M5294 3562 c-109 -51 -69 -165 84 -239 70 -34 85 -37 162 -38 98 0
140 17 160 64 18 45 5 80 -50 132 -60 59 -139 90 -240 96 -59 3 -84 0 -116
-15z"/>
<path d="M6948 3554 c-105 -45 -46 -166 118 -241 50 -22 73 -27 151 -27 83 -1
94 1 117 23 34 32 33 68 -3 118 -73 101 -282 171 -383 127z"/>
<path d="M8502 3549 c-66 -20 -67 -84 -2 -149 131 -131 410 -171 410 -58 0
109 -273 248 -408 207z"/>
<path d="M9969 3543 c-15 -2 -35 -13 -44 -23 -69 -76 182 -250 360 -250 85 0
111 59 55 124 -77 88 -268 164 -371 149z"/>
<path d="M11302 3518 c-52 -52 70 -167 238 -224 75 -25 158 -31 191 -14 72 39
-66 172 -238 229 -69 23 -172 28 -191 9z"/>
<path d="M3013 3456 c-138 -65 -99 -202 77 -273 67 -27 211 -25 266 4 50 27
74 61 74 106 0 135 -259 236 -417 163z"/>
<path d="M4832 3451 c-31 -15 -47 -30 -58 -56 -13 -33 -13 -39 5 -79 61 -138
343 -206 443 -106 92 92 -70 249 -267 257 -64 3 -88 0 -123 -16z"/>
<path d="M6540 3449 c-41 -17 -60 -40 -60 -74 0 -93 150 -197 305 -212 49 -4
71 -1 108 15 74 33 77 90 7 166 -58 63 -163 109 -260 113 -41 2 -86 -2 -100
-8z"/>
<path d="M8106 3429 c-100 -79 113 -260 310 -263 80 -1 121 15 130 51 25 97
-180 233 -349 233 -50 0 -70 -5 -91 -21z"/>
<path d="M9601 3421 c-27 -27 -27 -48 4 -93 61 -90 276 -183 380 -164 121 23
61 144 -114 229 -74 35 -97 41 -167 45 -73 4 -84 2 -103 -17z"/>
<path d="M11028 3429 c-64 -24 -32 -98 71 -167 179 -120 414 -135 357 -23 -37
71 -184 161 -305 187 -76 16 -86 16 -123 3z"/>
<path d="M12340 3412 c-18 -14 -20 -22 -11 -43 30 -80 278 -209 403 -209 38 0
72 31 64 58 -19 59 -185 165 -311 197 -78 20 -118 19 -145 -3z"/>
<path d="M2485 3346 c-61 -23 -105 -76 -105 -127 0 -167 345 -256 477 -124 28
28 33 40 33 79 0 40 -5 52 -40 90 -58 63 -124 89 -235 93 -62 2 -103 -1 -130
-11z"/>
<path d="M4375 3346 c-52 -15 -90 -49 -101 -91 -9 -36 29 -105 80 -143 163
-122 431 -89 413 51 -17 125 -235 227 -392 183z"/>
<path d="M6103 3335 c-44 -19 -67 -57 -59 -97 26 -129 275 -238 416 -182 46
19 60 38 60 86 0 125 -278 254 -417 193z"/>
<path d="M7755 3335 c-87 -31 -86 -97 4 -178 81 -73 232 -125 323 -111 47 8
88 42 88 74 0 81 -135 185 -279 216 -81 17 -86 17 -136 -1z"/>
<path d="M9277 3329 c-77 -30 -25 -137 104 -212 105 -61 257 -86 307 -51 72
50 -28 176 -191 241 -70 27 -178 38 -220 22z"/>
<path d="M10750 3330 c-48 -8 -60 -17 -60 -43 0 -74 145 -182 297 -221 72 -19
113 -20 147 -4 138 62 -201 299 -384 268z"/>
<path d="M12072 3314 c-98 -68 276 -293 421 -253 44 12 50 28 29 70 -57 113
-369 240 -450 183z"/>
<path d="M3885 3231 c-104 -26 -151 -102 -111 -180 71 -137 345 -196 450 -97
45 42 53 76 30 127 -47 106 -236 182 -369 150z"/>
<path d="M5725 3235 c-5 -2 -26 -6 -46 -9 -54 -9 -89 -49 -89 -101 0 -140 302
-268 438 -185 69 42 64 118 -12 188 -57 52 -112 80 -195 98 -67 14 -78 15 -96
9z"/>
<path d="M7330 3213 c-34 -23 -40 -33 -40 -69 0 -65 90 -149 209 -195 79 -31
198 -32 238 -3 90 67 -22 214 -206 270 -65 20 -170 18 -201 -3z"/>
<path d="M8923 3221 c-57 -25 -52 -93 12 -155 144 -141 425 -184 425 -66 0 61
-94 149 -210 196 -70 29 -188 41 -227 25z"/>
<path d="M10403 3218 c-124 -60 153 -278 352 -278 89 0 116 24 91 84 -49 117
-339 244 -443 194z"/>
<path d="M11804 3220 c-49 -20 -34 -72 39 -137 104 -91 322 -165 387 -131 72
38 -1 135 -161 211 -122 59 -213 78 -265 57z"/>
<path d="M6952 3110 c-51 -12 -82 -47 -82 -91 0 -83 125 -183 268 -215 68 -15
83 -15 131 -3 103 27 118 99 39 185 -48 52 -158 109 -237 124 -60 11 -72 11
-119 0z"/>
<path d="M8565 3109 c-113 -33 -49 -166 121 -251 71 -35 96 -42 162 -46 59 -3
86 0 109 11 89 46 19 167 -141 243 -101 48 -186 63 -251 43z"/>
<path d="M10082 3110 c-34 -14 -47 -51 -29 -86 51 -99 212 -191 354 -201 85
-7 123 10 123 54 0 119 -318 285 -448 233z"/>
<path d="M11500 3102 c-85 -69 204 -272 386 -272 77 0 106 29 80 79 -66 127
-384 259 -466 193z"/>
<path d="M3324 3094 c-22 -8 -54 -28 -70 -45 -24 -25 -29 -39 -29 -78 0 -112
136 -201 304 -201 90 0 143 21 185 71 24 28 27 39 23 77 -7 60 -49 109 -131
151 -59 31 -77 35 -154 38 -59 2 -100 -2 -128 -13z"/>
<path d="M5171 3092 c-152 -84 2 -287 233 -309 115 -10 206 38 206 108 0 70
-65 141 -175 190 -70 32 -215 37 -264 11z"/>
<path d="M9763 3000 c-44 -10 -63 -27 -63 -57 0 -89 170 -214 332 -244 114
-21 177 13 157 85 -30 110 -300 246 -426 216z"/>
<path d="M11202 2994 c-97 -67 162 -269 363 -282 59 -4 74 -1 94 15 35 28 22
66 -44 130 -115 112 -342 187 -413 137z"/>
<path d="M8185 2993 c-34 -9 -65 -45 -65 -75 0 -67 70 -140 189 -197 70 -33
83 -36 167 -36 109 0 134 14 134 75 0 71 -88 155 -220 209 -54 22 -165 35
-205 24z"/>
<path d="M4708 2975 c-27 -9 -57 -28 -72 -46 -88 -105 64 -267 268 -286 121
-11 216 44 216 125 0 133 -249 259 -412 207z"/>
<path d="M6483 2975 c-111 -48 -51 -192 113 -271 262 -126 453 40 232 202
-101 74 -260 106 -345 69z"/>
<path d="M2772 2962 c-171 -62 -154 -222 33 -309 114 -52 289 -33 350 38 33
41 40 72 25 122 -37 124 -255 203 -408 149z"/>
<path d="M9396 2875 c-21 -7 -43 -20 -47 -27 -51 -80 108 -226 296 -273 165
-41 246 27 162 136 -85 112 -309 201 -411 164z"/>
<path d="M10879 2869 c-72 -72 161 -258 358 -285 187 -24 166 119 -35 233
-127 71 -279 96 -323 52z"/>
<path d="M7792 2870 c-46 -11 -82 -47 -82 -82 0 -120 245 -268 404 -244 117
18 131 112 29 207 -93 88 -256 143 -351 119z"/>
<path d="M6075 2863 c-69 -18 -115 -62 -115 -109 0 -74 110 -178 227 -214 114
-35 242 -17 272 38 33 62 -9 150 -104 214 -79 53 -216 88 -280 71z"/>
<path d="M4160 2827 c-56 -29 -84 -80 -74 -133 9 -50 81 -126 148 -158 176
-83 376 -31 376 100 0 72 -99 168 -206 200 -76 23 -192 18 -244 -9z"/>
<path d="M10550 2743 c-11 -15 -18 -33 -15 -41 3 -7 5 -18 5 -23 0 -19 86
-103 144 -141 67 -43 197 -88 256 -88 91 0 126 40 92 107 -54 106 -255 213
-398 213 -56 0 -65 -3 -84 -27z"/>
<path d="M9013 2751 c-12 -6 -29 -21 -38 -35 -65 -99 182 -286 378 -286 267 0
31 310 -248 326 -38 2 -80 0 -92 -5z"/>
<path d="M7369 2741 c-46 -15 -66 -30 -79 -61 -43 -103 150 -263 334 -277 93
-7 140 11 162 62 13 33 13 39 -4 78 -37 83 -151 163 -274 192 -69 16 -100 17
-139 6z"/>
<path d="M5561 2716 c-139 -50 -91 -222 86 -303 223 -102 428 3 321 165 -74
111 -284 183 -407 138z"/>
<path d="M3686 2709 c-28 -4 -68 -21 -90 -36 -85 -60 -84 -149 4 -234 66 -65
140 -92 250 -93 70 -1 93 3 133 23 64 31 89 71 84 133 -11 130 -207 237 -381
207z"/>
<path d="M10230 2632 c-64 -32 -51 -91 39 -175 105 -96 292 -165 380 -138 23
6 46 21 52 33 43 81 -138 239 -323 283 -82 19 -106 19 -148 -3z"/>
<path d="M8623 2616 c-118 -54 -10 -226 189 -300 157 -59 278 -35 278 55 0 70
-119 181 -247 229 -74 28 -177 36 -220 16z"/>
<path d="M6905 2596 c-108 -48 -83 -170 53 -263 154 -105 341 -109 391 -8 41
84 -87 219 -258 271 -56 18 -147 17 -186 0z"/>
<path d="M5054 2572 c-55 -26 -84 -65 -84 -114 0 -51 18 -85 75 -137 65 -60
143 -93 235 -99 98 -6 150 9 189 53 74 84 10 204 -148 278 -85 40 -204 48
-267 19z"/>
<path d="M3082 2552 c-125 -45 -164 -145 -93 -244 103 -144 380 -172 484 -48
55 65 40 150 -40 220 -89 78 -244 110 -351 72z"/>
<path d="M9893 2512 c-68 -21 -80 -73 -34 -143 66 -99 255 -199 376 -199 169
0 158 130 -21 249 -105 70 -255 114 -321 93z"/>
<path d="M8203 2471 c-61 -38 -56 -107 14 -182 55 -59 122 -103 194 -128 214
-73 341 11 237 156 -93 129 -343 216 -445 154z"/>
<path d="M6456 2460 c-50 -15 -86 -58 -86 -103 0 -108 126 -218 288 -252 59
-13 83 -13 149 1 37 7 82 53 89 89 27 144 -262 318 -440 265z"/>
<path d="M4524 2422 c-108 -51 -121 -152 -31 -249 85 -93 247 -142 359 -109
137 40 165 148 67 260 -62 70 -150 108 -264 113 -74 3 -97 0 -131 -15z"/>
<path d="M9500 2362 c-47 -23 -59 -59 -36 -110 63 -139 342 -271 470 -222 142
54 -35 274 -270 335 -76 20 -121 19 -164 -3z"/>
<path d="M7794 2336 c-92 -40 -82 -143 23 -236 166 -148 443 -163 443 -25 0
156 -309 329 -466 261z"/>
<path d="M5960 2305 c-87 -40 -107 -94 -66 -179 31 -64 75 -105 154 -145 111
-55 233 -65 305 -24 47 27 71 81 58 131 -23 83 -105 163 -211 203 -73 29 -192
35 -240 14z"/>
<path d="M3992 2272 c-83 -30 -122 -77 -122 -147 0 -141 229 -275 402 -237
134 30 189 122 137 230 -60 123 -277 204 -417 154z"/>
<path d="M9098 2214 c-32 -17 -43 -50 -33 -101 9 -48 108 -147 191 -190 249
-131 443 -37 286 138 -93 103 -232 169 -356 169 -34 -1 -73 -7 -88 -16z"/>
<path d="M7353 2190 c-45 -14 -73 -54 -73 -104 0 -140 249 -298 426 -271 35 5
57 16 82 41 32 32 34 38 29 79 -3 27 -16 62 -33 87 -37 53 -128 121 -202 149
-64 24 -180 34 -229 19z"/>
<path d="M5503 2159 c-217 -28 -184 -260 53 -365 69 -31 178 -42 241 -25 23 6
56 25 72 42 137 137 -118 380 -366 348z"/>
<path d="M3480 2124 c-102 -17 -162 -54 -192 -120 -23 -54 -17 -97 23 -158
114 -172 443 -193 525 -35 39 76 -4 180 -100 246 -67 46 -188 78 -256 67z"/>
<path d="M8694 2066 c-37 -16 -58 -61 -48 -102 35 -143 291 -293 450 -263 65
12 94 41 94 94 0 84 -94 182 -236 246 -82 38 -207 50 -260 25z"/>
<path d="M6875 2027 c-120 -56 -87 -204 67 -307 185 -123 415 -98 411 44 -2
81 -85 177 -202 233 -63 30 -86 36 -160 40 -60 2 -95 -1 -116 -10z"/>
<path d="M4940 1991 c-117 -36 -159 -124 -109 -228 67 -138 304 -225 447 -163
67 29 96 68 96 129 -1 110 -100 209 -253 255 -57 17 -138 20 -181 7z"/>
<path d="M8305 1921 c-68 -17 -95 -45 -95 -101 0 -50 26 -98 83 -153 86 -84
227 -147 329 -147 55 0 116 28 133 61 20 38 19 55 -9 114 -45 98 -196 200
-330 224 -66 12 -68 12 -111 2z"/>
<path d="M6413 1871 c-79 -20 -119 -75 -109 -148 17 -123 180 -248 340 -260
93 -7 138 1 175 33 138 116 -61 359 -311 378 -35 3 -78 1 -95 -3z"/>
<path d="M4360 1810 c-72 -24 -116 -72 -125 -134 -6 -38 -3 -55 20 -101 53
-110 190 -186 334 -186 328 0 281 359 -57 430 -73 15 -108 13 -172 -9z"/>
<path d="M7833 1749 c-43 -12 -83 -62 -83 -102 1 -129 205 -292 379 -305 87
-6 148 14 174 57 93 157 -251 413 -470 350z"/>
<path d="M5865 1687 c-102 -47 -121 -151 -46 -254 125 -173 428 -227 511 -90
60 97 -28 245 -190 320 -54 25 -80 31 -155 34 -62 2 -99 -1 -120 -10z"/>
<path d="M3817 1638 c-203 -26 -257 -220 -100 -358 74 -65 210 -108 302 -95
65 9 143 49 171 87 34 47 39 130 11 186 -63 123 -227 200 -384 180z"/>
<path d="M7399 1579 c-57 -9 -81 -21 -108 -55 -64 -82 29 -243 185 -322 77
-39 134 -54 205 -53 144 0 204 85 145 205 -67 137 -277 247 -427 225z"/>
<path d="M5350 1511 c-91 -30 -130 -76 -130 -155 0 -121 119 -241 280 -282
156 -40 292 20 307 137 8 54 -42 156 -101 203 -73 61 -165 97 -254 102 -42 2
-88 0 -102 -5z"/>
<path d="M6857 1386 c-20 -8 -45 -20 -54 -27 -21 -18 -43 -71 -43 -106 0 -78
102 -203 208 -257 143 -72 277 -73 349 -1 29 29 33 40 33 84 0 188 -301 375
-493 307z"/>
<path d="M4762 1311 c-96 -33 -137 -90 -130 -182 13 -180 268 -325 470 -269
78 22 129 88 130 169 1 126 -132 254 -300 290 -72 15 -108 13 -170 -8z"/>
<path d="M6336 1192 c-188 -65 -122 -305 114 -420 64 -31 87 -36 160 -40 74
-3 91 0 130 20 25 13 55 38 67 57 87 130 -93 348 -322 390 -76 14 -90 14 -149
-7z"/>
<path d="M4149 1106 c-93 -33 -142 -97 -142 -185 0 -104 74 -201 199 -262 64
-32 76 -34 169 -34 83 0 107 4 140 22 137 73 152 220 35 347 -50 54 -106 88
-179 110 -65 19 -172 20 -222 2z"/>
<path d="M5777 986 c-76 -28 -117 -86 -117 -163 1 -165 219 -333 415 -321 116
8 183 56 200 144 21 112 -99 266 -253 325 -72 27 -192 35 -245 15z"/>
<path d="M5236 779 c-63 -10 -134 -55 -157 -99 -12 -22 -19 -55 -19 -90 0
-112 82 -220 218 -287 73 -36 80 -38 176 -38 89 0 106 3 139 23 20 13 50 40
65 60 23 31 27 45 27 106 0 59 -5 79 -27 116 -85 144 -265 234 -422 209z"/>
<path d="M4619 550 c-309 -51 -238 -448 96 -534 148 -39 280 6 336 115 99 195
-175 461 -432 419z"/>
</g>
</svg>
